<svg width="90" height="101" viewBox="0 0 90 101" fill="none" xmlns="http://www.w3.org/2000/svg">
<path d="M4.39433 28.144H24.7794C25.4021 21.2367 27.3242 15.0336 30.0855 10.2391C33.7402 3.90062 38.938 0 44.8126 0C50.6871 0 55.8579 3.9277 59.5396 10.2391C62.301 15.0065 64.2231 21.2367 64.8457 28.144H85.2037C87.6131 28.144 89.7789 30.1214 89.5894 32.5322L85.5015 89.6058C84.9872 96.757 80.4932 100.847 73.9689 100.847H15.6562C8.40096 100.847 4.55676 95.7818 4.12361 89.6058L0.0086907 32.5593C-0.15374 30.1485 1.98493 28.144 4.39433 28.144ZM29.8689 28.144H59.7021C59.1065 22.1577 57.4551 16.8485 55.0999 12.7854C52.3927 8.04502 48.7109 5.09247 44.8126 5.09247C40.8871 5.09247 37.2325 8.04502 34.4711 12.8124C32.1159 16.8485 30.4916 22.1848 29.8689 28.144Z" fill="#EA501F"/>
<path d="M30.0043 80.8294C29.0568 80.1793 28.8131 78.9062 29.4628 77.9582C30.1126 77.0101 31.3849 76.7663 32.3324 77.4164C32.928 77.8227 33.5507 78.229 34.2275 78.6353C38.9921 81.5337 43.3778 82.9694 47.0324 82.9694C50.3352 82.9694 53.0153 81.7233 54.7208 79.2042C54.8291 79.0146 54.9374 78.9062 54.9645 78.825C55.4518 78.0394 55.8037 77.1997 56.0474 76.3871C56.5347 74.7076 56.4534 72.974 55.7766 71.403C55.0457 69.7506 53.638 68.1524 51.4452 66.8251C49.9833 65.9313 48.1695 65.1457 45.9766 64.5498C40.3999 62.9787 36.2849 60.7575 34.065 57.7779C31.6286 54.5003 31.4391 50.5455 34.038 45.751C35.7706 42.5817 39.317 40.6043 43.8109 40.2522C47.6822 39.9542 52.3385 40.8752 57.0761 43.286C58.1048 43.8007 58.5109 45.0467 57.9695 46.076C57.428 47.1054 56.2098 47.5117 55.1811 46.9699C51.1474 44.9113 47.3032 44.1257 44.1087 44.3695C41.0496 44.6133 38.7214 45.8052 37.6927 47.7013C35.9601 50.8705 35.9871 53.3626 37.3949 55.2587C39.0192 57.4528 42.4032 59.1594 47.1137 60.4866C49.6584 61.218 51.8242 62.139 53.6109 63.2225C56.5617 65.0103 58.538 67.2586 59.5938 69.6964C60.6766 72.2156 60.812 74.8702 60.0811 77.4706C59.7562 78.6354 59.2418 79.8001 58.538 80.9378C58.3755 81.1816 58.2673 81.3712 58.186 81.5066C55.6684 85.2176 51.7971 87.0596 47.0866 87.0867C42.6739 87.0867 37.5302 85.4614 32.1159 82.1567C31.4391 81.7775 30.7352 81.3441 30.0043 80.8294Z" fill="white"/>
</svg>
